<?xml version="1.0" encoding="utf-8"?>
<!-- Generator: Adobe Illustrator 16.0.0, SVG Export Plug-In . SVG Version: 6.00 Build 0)  -->
<!DOCTYPE svg PUBLIC "-//W3C//DTD SVG 1.1//EN" "http://www.w3.org/Graphics/SVG/1.1/DTD/svg11.dtd">
<svg version="1.1" id="レイヤー_1" xmlns="http://www.w3.org/2000/svg" xmlns:xlink="http://www.w3.org/1999/xlink" x="0px"
	 y="0px" width="1024px" height="1024px" viewBox="0 0 1024 1024" enable-background="new 0 0 1024 1024" xml:space="preserve">
<g>
	<defs>
		<rect id="SVGID_1_" width="1024" height="1024"/>
	</defs>
	<clipPath id="SVGID_2_">
		<use xlink:href="#SVGID_1_"  overflow="visible"/>
	</clipPath>
	<rect clip-path="url(#SVGID_2_)" fill="#2C7EC1" width="1024" height="1024"/>
	<g clip-path="url(#SVGID_2_)">
		<polygon fill="none" points="827.763,842.207 827.358,842.611 827.938,842.382 		"/>
		<path fill="#025392" d="M1031.365,996.568l0.229,0.229l0.032-0.032l3.27,2.468l0.391-0.391l2.801,2.801l0.385-0.385l2.724,2.723
			l0.336-0.336l2.829,2.829l0.391-0.391l2.801,2.801l0.39-0.39l2.801,2.801l0.451-0.451l2.851,2.85l0.312-0.312l2.77,2.77
			l0.471-0.471l2.833,2.833l0.39-0.39l2.801,2.8l0.384-0.384l2.723,2.722l0.396-0.396l2.88,2.88l0.391-0.391l2.801,2.801l0.31-0.311
			l2.771,2.771l0.47-0.47l2.832,2.831l0.392-0.392l2.801,2.8l0.391-0.391l2.802,2.802l0.326-0.326l2.75,2.75l0.391-0.391
			l2.802,2.801l0.453-0.453l2.851,2.85l0.365-0.365l2.741,2.74l0.407-0.408l2.781,2.78l0.397-0.397l2.885,2.884l0.309-0.309
			l2.769,2.769l0.474-0.474l2.832,2.832l0.39-0.39l2.801,2.801l0.364-0.364l2.738,2.737l0.333-0.333l2.832,2.833l0.467-0.467
			l2.75,2.749l0.389-0.39l2.802,2.801l0.391-0.391l2.802,2.801l0.397-0.397l2.885,2.884l0.391-0.391l2.8,2.799l0.39-0.39
			l2.802,2.801l0.391-0.391l2.801,2.801l0.305-0.306l2.77,2.77l0.391-0.391l2.801,2.801l0.477-0.477l2.834,2.834l0.381-0.381
			l2.716,2.716l0.39-0.391l2.801,2.8l0.391-0.391l2.802,2.801l0.399-0.399l2.888,2.887l0.323-0.323l2.746,2.746l0.456-0.456
			l2.854,2.854l0.391-0.391l2.801,2.8l0.342-0.342l2.727,2.726l0.352-0.352l2.845,2.845l0.469-0.469l2.746,2.746l0.4-0.4
			l2.888,2.888l0.359-0.36l2.737,2.736l0.411-0.411l2.779,2.778l0.369-0.369l2.822,2.821l0.39-0.39l2.802,2.801l0.391-0.391
			l2.801,2.801l0.42-0.42l2.867,2.866l0.301-0.302l2.769,2.769l0.39-0.39l2.801,2.8l0.391-0.391l2.801,2.801l0.47-0.47l2.744,2.744
			l0.401-0.401l2.892,2.892l0.3-0.3l2.768,2.768l0.391-0.39l2.8,2.8l0.472-0.472l2.744,2.744l0.309-0.31l2.858,2.858l0.391-0.391
			l2.802,2.802l0.482-0.482l2.834,2.833l0.379-0.379l2.711,2.71l0.4-0.4l2.892,2.891l0.298-0.298l2.768,2.767l0.45-0.45l2.767,2.766
			l0.424-0.424l2.869,2.869l0.379-0.379l2.71,2.71l0.401-0.401l2.893,2.893l0.379-0.379l2.709,2.708l0.391-0.392l2.802,2.801
			l0.307-0.307l2.859,2.859l0.473-0.473l2.742,2.741l0.368-0.368l2.824,2.823l0.329-0.329l2.837,2.837l0.451-0.451l2.765,2.764
			l0.391-0.391l2.802,2.801l0.411-0.411l2.777,2.776l0.403-0.403l2.895,2.895l0.378-0.378l2.708,2.707l0.391-0.391l2.8,2.8
			l0.391-0.391l2.802,2.801l0.389-0.39l2.802,2.801l0.39-0.39l2.801,2.8l0.307-0.307l2.862,2.862l0.487-0.487l2.836,2.835
			l0.292-0.292l2.766,2.766l0.489-0.489l2.835,2.834l0.39-0.39l2.801,2.8l0.39-0.39l2.802,2.802l0.293-0.293l2.768,2.767
			l0.475-0.475l2.738,2.738l0.391-0.391l2.802,2.801l0.404-0.404l2.898,2.898l0.354-0.354l2.728,2.727l0.427-0.427l2.875,2.874
			l0.312-0.312l2.741,2.741l0.454-0.454l2.763,2.762l0.391-0.391l2.8,2.8l0.404-0.404l2.899,2.899l0.375-0.376l2.702,2.701
			l0.39-0.39l2.803,2.802l0.39-0.39l2.801,2.8l0.406-0.406l2.9,2.9l0.376-0.376l2.7,2.7l0.39-0.39l2.802,2.802l0.366-0.367
			l2.827,2.826l0.327-0.327l2.84,2.841l0.391-0.391l2.801,2.801l0.478-0.478l2.735,2.734l0.366-0.366l2.827,2.826l0.391-0.391
			l2.801,2.801l0.326-0.327l2.842,2.842l0.493-0.493l2.837,2.836l0.326-0.327l2.753,2.752l0.413-0.413l2.773,2.772l0.431-0.431
			l2.877,2.876l0.39-0.39l2.801,2.801l0.375-0.375l2.699,2.698l0.324-0.325l2.842,2.842l0.455-0.455l2.76,2.759l0.407-0.407
			l2.903,2.903l0.373-0.373l2.699,2.698l0.301-0.302l2.869,2.869l0.455-0.456l2.761,2.76l0.415-0.415l2.773,2.773l0.407-0.407
			l2.904,2.904l0.349-0.349l2.725,2.725l0.391-0.391l2.801,2.8l0.365-0.365l2.829,2.828l0.439-0.439l2.747,2.746l0.406-0.406
			l2.905,2.904l0.349-0.349l2.724,2.723l0.415-0.415l2.773,2.772l0.408-0.408l2.907,2.907l0.348-0.348l2.723,2.722l0.39-0.391
			l2.802,2.801l0.39-0.39l2.802,2.802l0.433-0.433l2.877,2.877l0.323-0.323l2.752,2.751l0.439-0.439l2.745,2.744l0.391-0.391
			l2.801,2.801l0.409-0.409l2.907,2.907l0.391-0.391l2.801,2.801l0.39-0.39l2.803,2.802l0.279-0.279l2.765,2.765l0.483-0.483
			l2.728,2.728l0.364-0.364l2.831,2.83l0.324-0.324l2.844,2.845l0.482-0.482l2.729,2.729l0.297-0.298l2.874,2.874l0.458-0.458
			l2.757,2.756l0.417-0.417l2.771,2.771l0.39-0.39l2.801,2.8l0.409-0.409l2.912,2.911l0.369-0.37l2.69,2.689l0.392-0.392
			l2.802,2.802l0.409-0.409l2.91,2.909l0.371-0.371l2.691,2.691l0.41-0.41l2.911,2.91l0.344-0.344l2.72,2.719l0.416-0.416
			l2.771,2.771l0.363-0.364l2.832,2.831l0.418-0.418l2.771,2.771l0.389-0.39l2.801,2.8l0.39-0.39l2.801,2.8l0.412-0.412l2.914,2.914
			l0.31-0.31l2.744,2.744l0.423-0.423l2.775,2.774l0.39-0.39l2.802,2.802l0.417-0.418l2.771,2.77l0.39-0.391l2.802,2.801
			l0.331-0.331l2.857,2.857l0.449-0.449l2.744,2.743l0.336-0.337l2.863,2.862l0.443-0.443l2.739,2.739l0.391-0.391l2.801,2.8
			l0.39-0.391l2.802,2.801l0.39-0.39l2.801,2.8l0.39-0.39l2.801,2.8l0.331-0.331l2.857,2.858l0.474-0.474l2.859,2.859l0.368-0.368
			l2.686,2.686l15.555-15.558l-343.421-343.324c0.283,0.067,0.562,0.128,0.844,0.193l2.177,2.177c0.34,0.081,0.672,0.152,1.01,0.231
			l2.181,2.181c0.341,0.081,0.674,0.152,1.014,0.232l2.178,2.178c0.342,0.081,0.675,0.153,1.015,0.232l2.178,2.178
			c0.341,0.081,0.673,0.152,1.013,0.232l2.178,2.178c0.341,0.081,0.673,0.152,1.011,0.231l2.18,2.18
			c0.341,0.081,0.674,0.152,1.014,0.232l2.178,2.178c0.341,0.081,0.674,0.152,1.014,0.232l2.177,2.177
			c0.341,0.081,0.673,0.152,1.012,0.231l2.179,2.179c0.341,0.081,0.673,0.152,1.013,0.232l2.18,2.18
			c0.342,0.081,0.675,0.153,1.015,0.232l2.178,2.178c0.342,0.081,0.675,0.153,1.015,0.232l2.177,2.177
			c0.341,0.081,0.673,0.152,1.012,0.231l2.179,2.179c0.341,0.081,0.673,0.152,1.012,0.231l2.179,2.179
			c0.34,0.081,0.672,0.152,1.01,0.231l2.182,2.182c0.342,0.082,0.677,0.153,1.018,0.233l2.174,2.174
			c0.341,0.081,0.674,0.152,1.014,0.232l2.18,2.18c89.761,21.424,123.522-26.006,122.85-88.334c0.489-0.442,0.977-0.889,1.462-1.337
			c-0.078,1.88-0.187,3.745-0.333,5.591c1.186-1.037,2.359-2.103,3.525-3.181c-0.078,1.88-0.187,3.745-0.333,5.59
			c1.187-1.037,2.359-2.103,3.525-3.181c-0.078,1.881-0.187,3.747-0.333,5.594c29.221-25.563,52.711-63.233,60.127-119.153
			l-27-40.498c-0.045,0.722-0.099,1.438-0.148,2.156l-3.045-4.568c-0.045,0.722-0.099,1.437-0.148,2.155l-3.043-4.565
			c-0.045,0.722-0.099,1.437-0.148,2.155l-3.043-4.565c-0.045,0.721-0.099,1.435-0.147,2.152l-3.042-4.563
			c-0.045,0.722-0.099,1.438-0.148,2.155l-3.043-4.564c-0.045,0.723-0.099,1.438-0.148,2.156l-3.043-4.565
			c-0.045,0.722-0.099,1.437-0.148,2.155l-3.044-4.566c-0.045,0.723-0.099,1.438-0.147,2.156l-3.045-4.566
			c-0.045,0.722-0.099,1.437-0.147,2.154l-3.044-4.565c-0.045,0.721-0.099,1.435-0.147,2.151l-3.042-4.562
			c-0.045,0.722-0.099,1.437-0.148,2.155l-3.043-4.565c-0.045,0.722-0.099,1.436-0.147,2.153l-3.043-4.563
			c-0.045,0.722-0.099,1.437-0.147,2.154l-3.043-4.563c-0.045,0.722-0.099,1.438-0.148,2.155l-3.044-4.566
			c-0.045,0.722-0.099,1.436-0.147,2.153l-3.043-4.563c-0.045,0.722-0.099,1.437-0.147,2.154l-3.044-4.565
			c-0.045,0.722-0.099,1.438-0.148,2.156l-3.043-4.565c-0.045,0.722-0.099,1.437-0.148,2.154l-3.043-4.564
			c-0.045,0.722-0.099,1.437-0.147,2.154l-3.044-4.565c-0.045,0.723-0.099,1.438-0.148,2.157l-3.044-4.566
			c-0.045,0.721-0.099,1.434-0.147,2.15l-3.041-4.562c-0.045,0.723-0.099,1.438-0.148,2.156l-3.045-4.567
			c-0.045,0.722-0.099,1.437-0.148,2.154l-3.042-4.563c-0.045,0.722-0.099,1.437-0.147,2.155l-3.045-4.566
			c-0.045,0.722-0.099,1.436-0.147,2.154l-3.043-4.564c-0.045,0.721-0.099,1.436-0.147,2.153l-3.043-4.564
			c-0.045,0.724-0.099,1.439-0.148,2.159l-3.044-4.566c-0.045,0.722-0.099,1.436-0.147,2.153l-3.044-4.565
			c-0.045,0.721-0.099,1.436-0.147,2.152l-3.043-4.563c-0.045,0.722-0.099,1.436-0.147,2.154l-3.043-4.564
			c-0.045,0.723-0.099,1.438-0.147,2.156l-3.045-4.566c-0.045,0.722-0.099,1.437-0.148,2.154l-3.042-4.563
			c-0.045,0.722-0.099,1.437-0.147,2.154l-3.045-4.566c-0.045,0.722-0.099,1.436-0.147,2.153l-3.043-4.563
			c-0.045,0.722-0.099,1.437-0.147,2.155l-3.044-4.565c-0.045,0.722-0.099,1.437-0.147,2.155l-3.044-4.565
			c-0.045,0.722-0.099,1.436-0.147,2.154l-3.044-4.565c-0.045,0.722-0.099,1.437-0.147,2.154l-3.043-4.563
			c-0.045,0.722-0.099,1.436-0.147,2.154l-3.044-4.565c-0.045,0.722-0.099,1.437-0.147,2.155l-3.044-4.565
			c-0.045,0.722-0.099,1.437-0.147,2.155l-3.044-4.565c-0.045,0.722-0.099,1.437-0.147,2.154l-3.044-4.565
			c-0.045,0.722-0.099,1.437-0.147,2.155l-3.044-4.565c-0.045,0.722-0.099,1.436-0.147,2.153l-3.042-4.562
			c-0.045,0.722-0.099,1.437-0.147,2.154l-3.044-4.565c-0.045,0.722-0.099,1.438-0.148,2.155l-3.044-4.566
			c-0.045,0.722-0.099,1.438-0.147,2.156l-3.044-4.565c-0.045,0.722-0.099,1.436-0.147,2.153l-3.043-4.563
			c-0.045,0.722-0.099,1.437-0.148,2.155l-3.044-4.566c-0.045,0.722-0.099,1.436-0.147,2.153l-3.043-4.563
			c-0.045,0.722-0.099,1.436-0.147,2.153l-3.043-4.564c-0.045,0.722-0.099,1.437-0.147,2.155l-3.044-4.565
			c-0.045,0.722-0.099,1.437-0.147,2.155l-3.044-4.565c-0.045,0.722-0.099,1.437-0.147,2.155l-3.044-4.565
			c-0.045,0.722-0.099,1.437-0.147,2.154l-3.043-4.563c-0.045,0.723-0.099,1.438-0.148,2.156l-3.044-4.566
			c-0.045,0.722-0.099,1.436-0.147,2.153l-3.044-4.565c-0.045,0.723-0.099,1.438-0.147,2.156l-3.044-4.565
			c-0.045,0.722-0.099,1.436-0.147,2.154l-3.044-4.565c-0.045,0.722-0.099,1.437-0.147,2.154l-3.043-4.563
			c-0.045,0.722-0.099,1.437-0.147,2.154l-3.044-4.565c-0.045,0.722-0.099,1.437-0.148,2.155l-3.043-4.565
			c-0.045,0.722-0.099,1.437-0.147,2.155l-3.044-4.565c-0.045,0.722-0.099,1.436-0.147,2.153l-3.043-4.564
			c-0.045,0.723-0.099,1.438-0.147,2.156l-3.045-4.566c-0.045,0.722-0.099,1.436-0.147,2.153l-3.043-4.563
			c-0.045,0.722-0.099,1.437-0.147,2.155l-3.044-4.565c-0.045,0.722-0.099,1.436-0.147,2.154l-3.043-4.564
			c-0.045,0.722-0.099,1.437-0.148,2.155l-3.043-4.565c-0.045,0.721-0.099,1.434-0.147,2.15l-3.042-4.562
			c-0.045,0.723-0.099,1.439-0.148,2.158l-3.045-4.567c-0.045,0.722-0.099,1.437-0.148,2.155l-3.043-4.565
			c-0.045,0.722-0.099,1.437-0.147,2.154l-3.044-4.565c-0.045,0.722-0.099,1.437-0.148,2.155l-3.043-4.565
			c-0.045,0.722-0.099,1.437-0.148,2.155l-3.043-4.565c-0.045,0.723-0.099,1.438-0.148,2.156l-3.043-4.565
			c-0.045,0.721-0.099,1.435-0.147,2.152l-3.042-4.562c-0.045,0.722-0.099,1.436-0.147,2.153l-3.044-4.565
			c-0.045,0.722-0.099,1.437-0.148,2.155l-3.042-4.564c-0.045,0.723-0.099,1.438-0.147,2.156l-3.045-4.566
			c-0.045,0.722-0.099,1.437-0.148,2.155l-3.043-4.565c-0.045,0.722-0.099,1.436-0.147,2.153l-3.044-4.565
			c-0.045,0.723-0.099,1.438-0.148,2.156l-3.043-4.565c-0.045,0.722-0.099,1.437-0.147,2.154l-3.044-4.565
			c-0.045,0.722-0.099,1.437-0.148,2.155l-3.043-4.565c-0.045,0.721-0.099,1.435-0.147,2.151l-3.042-4.562
			c-0.045,0.722-0.099,1.437-0.147,2.154l-3.044-4.565c-0.045,0.723-0.099,1.438-0.148,2.157l-3.044-4.566
			c-0.045,0.722-0.099,1.437-0.147,2.154l-3.043-4.563c-0.045,0.721-0.099,1.436-0.147,2.152l-3.043-4.563
			c-0.045,0.723-0.099,1.438-0.147,2.156l-3.045-4.566c-0.045,0.721-0.099,1.435-0.147,2.151l-3.042-4.562
			c-0.045,0.723-0.099,1.438-0.148,2.156l-3.044-4.566c-0.045,0.723-0.099,1.438-0.148,2.157l-3.044-4.566
			c-0.045,0.721-0.099,1.435-0.147,2.151l-3.042-4.562c-0.045,0.723-0.099,1.439-0.148,2.158l-3.045-4.567
			c-0.045,0.721-0.099,1.435-0.147,2.151l-3.042-4.562c-0.045,0.723-0.099,1.438-0.148,2.156l-3.045-4.567
			c-0.045,0.722-0.099,1.436-0.147,2.153l-3.042-4.562c-0.045,0.721-0.099,1.435-0.147,2.151l-3.043-4.563
			c-0.045,0.723-0.099,1.438-0.147,2.156l-3.044-4.565c-0.045,0.722-0.099,1.437-0.147,2.155l-3.045-4.566
			c-0.045,0.723-0.099,1.438-0.148,2.156l-3.043-4.565c-0.045,0.722-0.099,1.437-0.148,2.155l-3.043-4.565
			c-0.045,0.722-0.099,1.437-0.148,2.155l-3.043-4.565c-0.045,0.721-0.099,1.435-0.147,2.151l-3.043-4.563
			c-0.045,0.722-0.099,1.437-0.147,2.154l-3.043-4.563c-0.045,0.722-0.099,1.438-0.148,2.155l-3.044-4.566
			c-0.045,0.722-0.099,1.438-0.147,2.156l-3.044-4.565c-0.045,0.721-0.099,1.436-0.147,2.153l-3.043-4.564
			c-0.045,0.722-0.099,1.437-0.148,2.155l-3.043-4.565c-0.045,0.722-0.099,1.436-0.147,2.153l-3.043-4.563
			c-0.045,0.722-0.099,1.437-0.147,2.154l-3.044-4.565c-0.045,0.723-0.099,1.438-0.147,2.157l-3.045-4.566
			c-0.045,0.721-0.099,1.435-0.147,2.151l-3.042-4.562c-0.045,0.723-0.099,1.438-0.148,2.156l-3.043-4.565
			c-0.045,0.723-0.099,1.438-0.148,2.157l-3.045-4.567c-0.045,0.721-0.099,1.435-0.147,2.152l-3.043-4.564
			c-0.045,0.722-0.099,1.437-0.147,2.155l-3.044-4.565c-0.045,0.722-0.099,1.436-0.147,2.153l-3.043-4.563
			c-0.045,0.722-0.099,1.437-0.148,2.155l-3.043-4.565c-0.045,0.722-0.099,1.438-0.148,2.156l-3.043-4.565
			c-0.045,0.722-0.099,1.437-0.148,2.155l-3.043-4.565c-0.045,0.721-0.099,1.435-0.147,2.152l-3.043-4.564
			c-0.045,0.722-0.099,1.437-0.147,2.155l-3.044-4.565c-0.045,0.722-0.099,1.436-0.147,2.153l-3.043-4.563
			c-0.045,0.722-0.099,1.437-0.148,2.155l-3.043-4.565c-0.045,0.722-0.099,1.438-0.148,2.155l-3.044-4.566
			c-0.045,0.722-0.099,1.437-0.147,2.155l-3.044-4.565c-0.045,0.722-0.099,1.437-0.147,2.155l-3.044-4.565
			c-0.045,0.722-0.099,1.436-0.147,2.153l-3.043-4.563c-0.045,0.722-0.099,1.438-0.148,2.156l-3.043-4.565
			c-0.045,0.722-0.099,1.436-0.147,2.153l-3.044-4.565c-0.045,0.722-0.099,1.437-0.148,2.155l-3.043-4.565
			c-0.045,0.722-0.099,1.436-0.147,2.154l-3.043-4.564c-0.045,0.722-0.099,1.436-0.147,2.154l-3.043-4.564
			c-0.045,0.722-0.099,1.437-0.148,2.154l-3.043-4.565c-0.045,0.722-0.099,1.437-0.148,2.155l-3.043-4.565
			c-0.045,0.723-0.099,1.438-0.148,2.157l-3.044-4.566c-0.045,0.722-0.099,1.436-0.147,2.153l-3.044-4.565
			c-0.045,0.722-0.099,1.437-0.147,2.155l-3.044-4.565c-0.045,0.723-0.099,1.438-0.147,2.156l-3.044-4.565
			c-0.045,0.722-0.099,1.436-0.147,2.153l-3.043-4.564c-0.045,0.722-0.099,1.437-0.148,2.154l-3.043-4.564
			c-0.045,0.721-0.099,1.436-0.147,2.152l-3.042-4.562c-0.045,0.723-0.099,1.438-0.148,2.156l-3.044-4.566
			c-0.045,0.723-0.099,1.438-0.147,2.156l-3.045-4.566c-0.045,0.722-0.099,1.437-0.147,2.155l-3.044-4.565
			c-0.045,0.722-0.099,1.436-0.147,2.154l-3.044-4.565c-0.045,0.721-0.099,1.435-0.147,2.151l-2.524-3.787l-0.017-0.479
			L717.08,285.599v0c-1.344,21.506-4.572,41.417-9.848,59.708l-1.543-1.165c-0.034-0.029-0.067-0.06-0.102-0.089l-3.187-2.406
			c-0.002-0.001-0.003-0.003-0.005-0.004h-0.001l-3.182-2.403c-0.003-0.002-0.005-0.004-0.008-0.007l-0.001,0l-3.189-2.409
			c0,0-0.001,0-0.001-0.001l-3.186-2.406c-0.002-0.002-0.004-0.003-0.006-0.005h-0.001l-3.18-2.401
			c-0.004-0.003-0.007-0.007-0.011-0.01l-0.001,0l-3.183-2.404c-0.003-0.002-0.005-0.004-0.008-0.007l-0.001,0l-3.189-2.409
			c0,0-0.001,0-0.001-0.001l-3.187-2.406c-0.001-0.001-0.002-0.002-0.004-0.004l-3.183-2.403c-0.003-0.003-0.006-0.006-0.009-0.008
			l-0.001,0l-9.555-7.217c-0.006-0.005-0.012-0.01-0.018-0.016l-0.002,0l-3.188-2.408c-0.001,0-0.001-0.001-0.002-0.001
			l-3.182-2.403c-0.003-0.002-0.006-0.005-0.009-0.007l-0.001,0l-3.185-2.406c-0.002-0.001-0.004-0.003-0.006-0.005h-0.001
			L597.086,262.1l-43.498,13.501c63.84,66.586,94.353,129.072,95.137,173.254l-8.479-6.403c-2.607,1.877-5.293,3.699-8.046,5.475
			L279.365,181.43l-0.002-0.002l-98.288,98.288l264.457,264.457L786.317,801.57l41.041,41.041l0,0"/>
	</g>
	<g clip-path="url(#SVGID_2_)">
		<g>
			
				<rect x="619.078" y="339.751" transform="matrix(-0.7071 0.7071 -0.7071 -0.7071 1520.9086 629.5142)" fill="#FFFFFF" width="21.999" height="579.993"/>
			<polygon fill="#FFFFFF" points="430.683,399.217 510.586,479.12 543.82,445.886 279.362,181.428 181.074,279.716 
				445.531,544.174 478.766,510.939 398.863,431.037 			"/>
		</g>
		<path fill="#FFFFFF" d="M597.086,262.101l-43.498,13.5c138.523,144.482,120.255,269.733-18.574,230.336l18.573,18.572
			C730.335,566.695,689.955,341.911,597.086,262.101z"/>
		<g>
			<path fill="#FFFFFF" d="M540.087,500.089c23.306-2.589,60.859-7.983,97.59-25.085c2.862-9.49,3.74-20.424,2.569-32.551
				c-30.512,21.96-70.824,37.071-122.358,45.037l10.425,10.521L540.087,500.089z"/>
			<path fill="#FFFFFF" d="M717.078,285.6c-2.848,45.569-14.135,83.999-35.5,114.961c2.607,15.486,3.492,30.614,2.372,44.689
				c29.222-25.562,52.709-63.233,60.127-119.152L717.078,285.6z"/>
		</g>
	</g>
</g>
</svg>
